<?xml version="1.0" encoding="UTF-8"?>
<svg width="400pt" height="182.8pt" version="1.1" viewBox="0 0 400 182.8" xmlns="http://www.w3.org/2000/svg" xmlns:xlink="http://www.w3.org/1999/xlink">
 <defs>
  <clipPath id="clip-0">
   <path d="m270 52.055h36v47.945h-36z"/>
  </clipPath>
  <clipPath id="clip-1">
   <path d="m311 52.055h37v47.945h-37z"/>
  </clipPath>
  <clipPath id="clip-2">
   <path d="m354 52.055h30.109v47.945h-30.109z"/>
  </clipPath>
  <clipPath id="clip-3">
   <path d="m211.16 112h15.836v19.09h-15.836z"/>
  </clipPath>
  <clipPath id="clip-4">
   <path d="m229 112h14v19.09h-14z"/>
  </clipPath>
  <clipPath id="clip-5">
   <path d="m244 112h15v19.09h-15z"/>
  </clipPath>
  <clipPath id="clip-6">
   <path d="m260 112h18v19.09h-18z"/>
  </clipPath>
  <clipPath id="clip-7">
   <path d="m280 112h16v19.09h-16z"/>
  </clipPath>
  <clipPath id="clip-8">
   <path d="m306 112h16v19.09h-16z"/>
  </clipPath>
  <clipPath id="clip-9">
   <path d="m323 107h13v24.09h-13z"/>
  </clipPath>
  <clipPath id="clip-10">
   <path d="m346 112h19v19.09h-19z"/>
  </clipPath>
  <clipPath id="clip-11">
   <path d="m242 52.055h17v15.945h-17z"/>
  </clipPath>
  <clipPath id="clip-12">
   <path d="m211.16 83h15.836v17h-15.836z"/>
  </clipPath>
  <clipPath>
   <path d="m0.066406 1h358.93v358.83h-358.93z"/>
  </clipPath>
  <clipPath id="clip-15">
   <rect width="360" height="360"/>
  </clipPath>
  <g clip-path="url(#clip-15)"></g>
 </defs>
 <g transform="matrix(2.3129 0 0 2.3129 -488.39 -120.4)" clip-path="url(#clip-0)">
  <path d="m281.56 74.684h5.1875c5.7656 0 8.6484-2.4961 8.6484-7.4961 0-2.4492-0.76563-4.1797-2.3047-5.1875s-3.7461-1.5156-6.6289-1.5156h-4.9023zm-10.594 24.359v-46.988h16.145c2.5938 0 5.0195 0.25391 7.2773 0.75781 2.2578 0.50391 4.2266 1.3438 5.9102 2.5195 1.6797 1.1797 3.0117 2.7383 4 4.6875 0.98438 1.9453 1.4766 4.3359 1.4766 7.168 0 2.7383-0.49218 5.1172-1.4766 7.1367-0.98828 2.0156-2.3203 3.6719-4 4.9727-1.6836 1.2969-3.6289 2.2578-5.8359 2.8828-2.2148 0.625-4.5664 0.93359-7.0664 0.93359h-5.8359v15.93z"/>
 </g>
 <g transform="matrix(2.3129 0 0 2.3129 -488.39 -120.4)" clip-path="url(#clip-1)">
  <path d="m321.63 90.465h2.0195c2.0156 0 3.8438-0.26172 5.4766-0.79297 1.6328-0.52734 3.0273-1.3789 4.1797-2.5586 1.1523-1.1758 2.0547-2.7266 2.7031-4.6484 0.64844-1.918 0.97266-4.2969 0.97266-7.1328 0-2.7852-0.32422-5.1289-0.97266-7.0273-0.64844-1.8984-1.5508-3.4102-2.7031-4.5391-1.1524-1.1289-2.5469-1.9336-4.1797-2.4141-1.6328-0.48047-3.4609-0.71875-5.4766-0.71875h-2.0195zm-10.594 8.5742v-46.984h13.262c3.6055 0 6.8477 0.45703 9.7305 1.3711 2.8789 0.91016 5.3555 2.3164 7.4219 4.2148 2.0625 1.8984 3.6484 4.3125 4.7539 7.2422 1.1055 2.9297 1.6602 6.4141 1.6602 10.449 0 4.0352-0.55469 7.543-1.6602 10.52-1.1055 2.9805-2.6641 5.4414-4.6836 7.3867-2.0195 1.9492-4.4297 3.4023-7.2422 4.3594-2.8125 0.96484-5.9453 1.4414-9.4023 1.4414z"/>
 </g>
 <g transform="matrix(2.3129 0 0 2.3129 -488.39 -120.4)" clip-path="url(#clip-2)">
  <path d="m354.49 99.039v-46.984h29.617v8.9375h-19.023v10.879h16.285v8.9375h-16.285v18.23z"/>
 </g>
 <g transform="matrix(2.3129 0 0 2.3129 -488.39 -120.4)" clip-path="url(#clip-3)">
  <path d="m218.09 127.8c0.73047 0 1.3945-0.16797 1.9922-0.51172 0.59765-0.33985 1.2383-0.82813 1.9219-1.4648v-4.0195c-1.2226 0.14453-2.2461 0.33985-3.0742 0.58203-0.82812 0.2461-1.5 0.51953-2.0117 0.82422-0.51171 0.30469-0.875 0.65235-1.0976 1.043-0.21875 0.39063-0.32813 0.80469-0.32813 1.2422 0 0.80469 0.2461 1.3906 0.73047 1.7539 0.48828 0.36719 1.1094 0.55079 1.8672 0.55079m-1.3516 3.293c-1.5859 0-2.8672-0.48437-3.8398-1.4453-0.97656-0.96484-1.4648-2.2383-1.4648-3.8242 0-0.94922 0.19922-1.7969 0.60547-2.5391 0.40234-0.74609 1.0352-1.3867 1.8984-1.9219 0.86718-0.53516 1.9648-0.98829 3.293-1.3516 1.3281-0.36718 2.918-0.64453 4.7734-0.84375-0.0273-0.46093-0.0937-0.90625-0.20312-1.332-0.10938-0.42578-0.29297-0.80469-0.54688-1.1328-0.25781-0.33203-0.59375-0.58594-1.0078-0.76953-0.41406-0.1836-0.92578-0.27344-1.5352-0.27344-0.8789 0-1.7383 0.16797-2.5781 0.51172-0.83985 0.33984-1.6641 0.75391-2.4688 1.2422l-1.5352-2.8164c1-0.63281 2.1211-1.1836 3.3633-1.6445 1.2461-0.46484 2.5859-0.69531 4.0234-0.69531 2.2422 0 3.918 0.66797 5.0273 1.9922 1.1094 1.332 1.6641 3.25 1.6641 5.7617v10.641h-3.4727l-0.29297-1.9727h-0.14844c-0.80078 0.67969-1.6602 1.2539-2.5781 1.7188-0.91406 0.46094-1.9062 0.69531-2.9766 0.69531"/>
 </g>
 <g transform="matrix(2.3129 0 0 2.3129 -488.39 -120.4)" clip-path="url(#clip-4)">
  <path d="m235.9 131.09c-1.2422 0-2.4688-0.23828-3.6758-0.71484s-2.2461-1.0664-3.125-1.7734l1.9727-2.707c0.80469 0.63672 1.6055 1.1289 2.3984 1.4805 0.78906 0.35547 1.6484 0.53125 2.5781 0.53125 0.97266 0 1.6914-0.19922 2.1562-0.60156 0.46094-0.40235 0.69531-0.92188 0.69531-1.5547 0-0.36719-0.10937-0.69141-0.32812-0.96875-0.22266-0.28125-0.51563-0.53125-0.87891-0.75-0.36719-0.22266-0.78125-0.42187-1.2422-0.60547-0.46484-0.18359-0.92968-0.37109-1.3906-0.5664-0.58594-0.21875-1.1836-0.47657-1.793-0.76563-0.60937-0.29297-1.1523-0.64844-1.625-1.0625-0.47656-0.41406-0.86719-0.89453-1.1719-1.4453-0.30469-0.54688-0.45704-1.1992-0.45704-1.957 0-1.582 0.58594-2.875 1.7539-3.875 1.1719-1 2.7695-1.5 4.793-1.5 1.2422 0 2.3633 0.21875 3.3633 0.66015 1 0.4375 1.8633 0.9375 2.5977 1.5l-1.9414 2.5586c-0.63281-0.46485-1.2734-0.83594-1.918-1.1172-0.64453-0.27734-1.3203-0.41797-2.0312-0.41797-0.90234 0-1.5664 0.1875-1.9922 0.56641-0.42578 0.3789-0.64062 0.84765-0.64062 1.4062 0 0.36718 0.10547 0.67578 0.3125 0.93359s0.48047 0.48047 0.82422 0.67578c0.33984 0.19531 0.73437 0.37891 1.1875 0.54688 0.44922 0.17187 0.91797 0.34375 1.4062 0.51562 0.60937 0.21875 1.2188 0.46875 1.8281 0.75 0.60938 0.27735 1.1641 0.625 1.6641 1.0391 0.5 0.41797 0.90234 0.92188 1.207 1.5195 0.30468 0.59765 0.45703 1.3125 0.45703 2.1406 0 0.77734-0.15235 1.5039-0.45703 2.1758-0.30469 0.66797-0.75 1.2539-1.332 1.7539-0.58594 0.5-1.3164 0.89453-2.1953 1.1875-0.8789 0.29297-1.8789 0.4414-3 0.4414"/>
 </g>
 <g transform="matrix(2.3129 0 0 2.3129 -488.39 -120.4)" clip-path="url(#clip-5)">
  <path d="m251.66 131.09c-1.2422 0-2.4688-0.23828-3.6758-0.71484s-2.2461-1.0664-3.125-1.7734l1.9727-2.707c0.80468 0.63672 1.6055 1.1289 2.3984 1.4805 0.78907 0.35547 1.6484 0.53125 2.5781 0.53125 0.97266 0 1.6914-0.19922 2.1562-0.60156 0.46094-0.40235 0.69531-0.92188 0.69531-1.5547 0-0.36719-0.10937-0.69141-0.32812-0.96875-0.22266-0.28125-0.51563-0.53125-0.87891-0.75-0.36719-0.22266-0.78125-0.42187-1.2422-0.60547-0.46484-0.18359-0.92968-0.37109-1.3906-0.5664-0.58594-0.21875-1.1836-0.47657-1.793-0.76563-0.60938-0.29297-1.1523-0.64844-1.625-1.0625-0.47656-0.41406-0.86719-0.89453-1.1719-1.4453-0.30468-0.54688-0.45703-1.1992-0.45703-1.957 0-1.582 0.58594-2.875 1.7539-3.875 1.1719-1 2.7695-1.5 4.793-1.5 1.2422 0 2.3633 0.21875 3.3633 0.66015 1 0.4375 1.8633 0.9375 2.5977 1.5l-1.9414 2.5586c-0.63281-0.46485-1.2734-0.83594-1.918-1.1172-0.64453-0.27734-1.3242-0.41797-2.0312-0.41797-0.90234 0-1.5664 0.1875-1.9922 0.56641-0.42578 0.3789-0.64062 0.84765-0.64062 1.4062 0 0.36718 0.10547 0.67578 0.3125 0.93359s0.48047 0.48047 0.82422 0.67578c0.33984 0.19531 0.73437 0.37891 1.1875 0.54688 0.44922 0.17187 0.91797 0.34375 1.4062 0.51562 0.60937 0.21875 1.2188 0.46875 1.8281 0.75 0.60938 0.27735 1.1641 0.625 1.6641 1.0391 0.5 0.41797 0.90235 0.92188 1.207 1.5195 0.30468 0.59765 0.45703 1.3125 0.45703 2.1406 0 0.77734-0.15235 1.5039-0.45703 2.1758-0.30469 0.66797-0.75 1.2539-1.332 1.7539-0.58593 0.5-1.3164 0.89453-2.1953 1.1875-0.8789 0.29297-1.8789 0.4414-3 0.4414"/>
 </g>
 <g transform="matrix(2.3129 0 0 2.3129 -488.39 -120.4)" clip-path="url(#clip-6)">
  <path d="m269.36 127.65c1.3164 0 2.3555-0.54296 3.1094-1.6289 0.75781-1.0859 1.1328-2.5312 1.1328-4.332 0-1.832-0.375-3.2852-1.1328-4.3711-0.75391-1.0859-1.793-1.6289-3.1094-1.6289s-2.3438 0.54297-3.0898 1.6289c-0.74219 1.0859-1.1133 2.5391-1.1133 4.3711 0 1.8008 0.37109 3.2461 1.1133 4.332 0.74609 1.0859 1.7734 1.6289 3.0898 1.6289m0 3.4375c-1.1211 0-2.1914-0.20703-3.2148-0.62109-1.0274-0.41797-1.9336-1.0273-2.7266-1.8281-0.79296-0.80859-1.418-1.793-1.8828-2.9648-0.46484-1.168-0.69531-2.5-0.69531-3.9844 0-1.4883 0.23047-2.8164 0.69531-3.9883 0.46485-1.168 1.0898-2.1562 1.8828-2.9609 0.79297-0.80469 1.6992-1.4219 2.7266-1.8477 1.0234-0.42578 2.0938-0.64062 3.2148-0.64062s2.2031 0.21484 3.2383 0.64062c1.0352 0.42578 1.9453 1.043 2.7227 1.8477 0.78125 0.80469 1.4102 1.793 1.8867 2.9609 0.47265 1.1719 0.71093 2.5 0.71093 3.9883 0 1.4844-0.23828 2.8164-0.71093 3.9844-0.47657 1.1719-1.1055 2.1562-1.8867 2.9648-0.77735 0.80079-1.6875 1.4102-2.7227 1.8281-1.0352 0.41406-2.1172 0.62109-3.2383 0.62109"/>
 </g>
 <g transform="matrix(2.3129 0 0 2.3129 -488.39 -120.4)" clip-path="url(#clip-7)">
  <path d="m289.19 131.09c-1.2188 0-2.3594-0.21093-3.4219-0.625-1.0586-0.41406-1.9805-1.0234-2.7578-1.8281-0.78125-0.80078-1.3906-1.7891-1.832-2.9609-0.4375-1.1719-0.65625-2.5-0.65625-3.9844 0-1.4883 0.24219-2.8164 0.73047-3.9883 0.48828-1.168 1.1445-2.1562 1.9766-2.9609 0.82813-0.80469 1.7852-1.4219 2.8711-1.8477 1.082-0.42578 2.2226-0.64062 3.418-0.64062 1.1719 0 2.1758 0.19531 3.0156 0.58593 0.83984 0.39063 1.5898 0.86719 2.25 1.4258l-2.0469 2.7422c-0.48828-0.41406-0.96875-0.73828-1.4453-0.96875s-0.99219-0.34765-1.5547-0.34765c-1.4609 0-2.6445 0.54297-3.5469 1.6289-0.90234 1.0859-1.3516 2.5391-1.3516 4.3711 0 1.8047 0.4414 3.2461 1.332 4.332 0.89062 1.0859 2.043 1.6289 3.457 1.6289 0.70703 0 1.3711-0.15234 1.9922-0.46093 0.62109-0.30078 1.1875-0.66016 1.6992-1.0742l1.7188 2.7773c-0.85157 0.73047-1.7852 1.2812-2.7969 1.6445-1.0117 0.36719-2.0273 0.55078-3.0508 0.55078"/>
 </g>
 <path d="m201.26 140.24h9.7213v41.532h-9.7213zm4.9058-7.2729c-1.7527 0-3.1892-0.50594-4.3186-1.5178-1.1293-1.0209-1.6895-2.34-1.6895-3.9752s0.56014-2.9724 1.6895-4.0204c1.1293-1.039 2.5658-1.563 4.3186-1.563 1.7437 0 3.1802 0.52402 4.3095 1.563 1.1293 1.048 1.6895 2.3852 1.6895 4.0204s-0.56014 2.9543-1.6895 3.9752c-1.1293 1.0119-2.5658 1.5178-4.3095 1.5178" stroke-width="2.3129"/>
 <g transform="matrix(2.3129 0 0 2.3129 -488.39 -120.4)" clip-path="url(#clip-8)">
  <path d="m313.1 127.8c0.73438 0 1.3945-0.16797 1.9922-0.51172 0.59766-0.33985 1.2383-0.82813 1.9219-1.4648v-4.0195c-1.2188 0.14453-2.2461 0.33985-3.0703 0.58203-0.83203 0.2461-1.5 0.51953-2.0156 0.82422-0.50782 0.30469-0.875 0.65235-1.0938 1.043-0.21875 0.39063-0.33203 0.80469-0.33203 1.2422 0 0.80469 0.24609 1.3906 0.73437 1.7539 0.48438 0.36719 1.1094 0.55079 1.8633 0.55079m-1.3516 3.293c-1.5859 0-2.8672-0.48437-3.8398-1.4453-0.97657-0.96484-1.4648-2.2383-1.4648-3.8242 0-0.94922 0.20313-1.7969 0.60547-2.5391 0.40234-0.74609 1.0352-1.3867 1.9023-1.9219 0.86329-0.53516 1.9609-0.98829 3.2891-1.3516 1.3281-0.36718 2.9219-0.64453 4.7734-0.84375-0.0234-0.46093-0.0898-0.90625-0.20312-1.332-0.10938-0.42578-0.28906-0.80469-0.54688-1.1328-0.2539-0.33203-0.58984-0.58594-1.0039-0.76953-0.41797-0.1836-0.92969-0.27344-1.5391-0.27344-0.875 0-1.7344 0.16797-2.5781 0.51172-0.83984 0.33984-1.6641 0.75391-2.4688 1.2422l-1.5352-2.8164c1-0.63281 2.1211-1.1836 3.3633-1.6445 1.2461-0.46484 2.5859-0.69531 4.0234-0.69531 2.2422 0 3.9219 0.66797 5.0312 1.9922 1.1094 1.332 1.6602 3.25 1.6602 5.7617v10.641h-3.4727l-0.29297-1.9727h-0.14453c-0.80468 0.67969-1.6641 1.2539-2.5781 1.7188-0.91406 0.46094-1.9062 0.69531-2.9805 0.69531"/>
 </g>
 <g transform="matrix(2.3129 0 0 2.3129 -488.39 -120.4)" clip-path="url(#clip-9)">
  <path d="m332.01 131.09c-1.0469 0-1.9297-0.16015-2.6484-0.47656s-1.3047-0.76172-1.7578-1.3359c-0.44922-0.57031-0.78125-1.2539-0.98828-2.0469s-0.30859-1.6758-0.30859-2.6523v-8.5586h-2.5586v-3.1445l2.7774-0.18359 0.51172-4.8984h3.5117v4.8984h4.5703v3.3281h-4.5703v8.5586c0 2.0976 0.83985 3.1445 2.5234 3.1445 0.31641 0 0.64063-0.0352 0.96875-0.10938 0.32813-0.0703 0.62891-0.16797 0.89453-0.29297l0.73047 3.1094c-0.48437 0.17187-1.0391 0.32422-1.6602 0.45703-0.625 0.13281-1.2891 0.20312-1.9961 0.20312"/>
 </g>
 <path d="m295.4 140.24h9.7303v41.532h-9.7303zm4.9148-7.2729c-1.7527 0-3.1892-0.50594-4.3186-1.5178-1.1293-1.0209-1.6895-2.34-1.6895-3.9752s0.56015-2.9724 1.6895-4.0204c1.1293-1.039 2.5658-1.563 4.3186-1.563 1.7437 0 3.1802 0.52402 4.3095 1.563 1.1293 1.048 1.6895 2.3852 1.6895 4.0204s-0.56014 2.9543-1.6895 3.9752c-1.1293 1.0119-2.5658 1.5178-4.3095 1.5178" stroke-width="2.3129"/>
 <g transform="matrix(2.3129 0 0 2.3129 -488.39 -120.4)" clip-path="url(#clip-10)">
  <path d="m355.45 127.65c1.3164 0 2.3516-0.54296 3.1094-1.6289 0.75391-1.0859 1.1328-2.5312 1.1328-4.332 0-1.832-0.37891-3.2852-1.1328-4.3711-0.75781-1.0859-1.793-1.6289-3.1094-1.6289-1.3164 0-2.3477 0.54297-3.0898 1.6289-0.74218 1.0859-1.1133 2.5391-1.1133 4.3711 0 1.8008 0.3711 3.2461 1.1133 4.332 0.74219 1.0859 1.7734 1.6289 3.0898 1.6289m0 3.4375c-1.1211 0-2.1953-0.20703-3.2148-0.62109-1.0273-0.41797-1.9336-1.0273-2.7266-1.8281-0.79297-0.80859-1.4219-1.793-1.8828-2.9648-0.46484-1.168-0.69531-2.5-0.69531-3.9844 0-1.4883 0.23047-2.8164 0.69531-3.9883 0.46094-1.168 1.0898-2.1562 1.8828-2.9609s1.6992-1.4219 2.7266-1.8477c1.0195-0.42578 2.0938-0.64062 3.2148-0.64062 1.1211 0 2.2031 0.21484 3.2383 0.64062s1.9453 1.043 2.7227 1.8477c0.78125 0.80469 1.4102 1.793 1.8828 2.9609 0.47656 1.1719 0.71484 2.5 0.71484 3.9883 0 1.4844-0.23828 2.8164-0.71484 3.9844-0.47266 1.1719-1.1016 2.1562-1.8828 2.9648-0.77735 0.80079-1.6875 1.4102-2.7227 1.8281-1.0352 0.41406-2.1172 0.62109-3.2383 0.62109"/>
 </g>
 <path d="m361.21 181.78v-41.523h8.0318l0.67759 5.5834h0.34332c1.8611-1.8069 3.8759-3.3609 6.0442-4.6619 2.1683-1.292 4.698-1.9424 7.571-1.9424 4.4541 0 7.6975 1.4275 9.7213 4.2734 2.0328 2.8459 3.0537 6.9205 3.0537 12.224v26.047h-9.7303v-24.782c0-3.4332-0.50594-5.8635-1.5268-7.2729-1.0119-1.4094-2.6743-2.1141-4.9871-2.1141-1.8069 0-3.397 0.4427-4.7793 1.31-1.3823 0.87636-2.9453 2.1593-4.689 3.8488v29.01z" stroke-width="2.3129"/>
 <g transform="matrix(2.3129 0 0 2.3129 -488.39 -120.4)" clip-path="url(#clip-11)">
  <path d="m258.19 67.793h-15.676v-15.672h15.676z" fill="#cf9c1d"/>
 </g>
 <path d="m72.503 72.657h-36.247v-36.256h36.247z" fill="#959b54" stroke-width="2.3129"/>
 <g transform="matrix(2.3129 0 0 2.3129 -488.39 -120.4)" clip-path="url(#clip-12)">
  <path d="m226.84 99.141h-15.676v-15.672h15.676z" fill="#d03544"/>
 </g>
 <path d="m108.76 108.9h-36.256v-36.247h36.256z" fill="#4992b2" stroke-width="2.3129"/>
</svg>
